<svg xmlns="http://www.w3.org/2000/svg" id="Layer_1" data-name="Layer 1" version="1.1" viewBox="0 0 24 24"><defs><style>.cls-1{fill:#000;stroke-width:0}</style></defs><polygon points="14.9 16.3 10.9 12.3 10.9 5.4 12.9 5.4 12.9 11.5 16.3 14.9 14.9 16.3" class="cls-1"/><path d="M21.5,15.1" class="cls-1"/><g><path d="M14.9,22.6c.7-.2,1.4-.5,2.1-.8l-.9-1.8c-.5.3-1.1.5-1.7.7l.6,1.9Z" class="cls-1"/><path d="M18.9,17.8c-.4.5-.9.9-1.4,1.3l1.3,1.6c.6-.5,1.1-1,1.6-1.5l-1.5-1.4Z" class="cls-1"/><path d="M20.3,15.6c-.1.3-.3.5-.4.8l1.7,1c.2-.3.4-.7.5-1l.4-.9-1.8-.8-.4.9Z" class="cls-1"/><path d="M12,1C5.9,1,1,5.9,1,12s4.9,11,11,11,.6,0,.8,0v-2c-.4,0-.6,0-.8,0-5,0-9-4-9-9S7,3,12,3s7.7,2.9,8.7,6.8l-.9-.7-1.2,1.6,4.4,3.3v-2c0-6.1-4.9-11-11-11Z" class="cls-1"/></g></svg>